<?xml version="1.0" ?><!DOCTYPE svg  PUBLIC '-//W3C//DTD SVG 1.1//EN'  'http://www.w3.org/Graphics/SVG/1.1/DTD/svg11.dtd'><svg xmlns="http://www.w3.org/2000/svg" width="1463.000" height="2129.000" viewBox="-390.000 -89.000 1463.000 2129.000"><rect x="50.0" y="1450.0" width="300.0" height="300.0" stroke="#000" fill="none"/><text x="-12.5" y="1537" fill="#000" stroke-width="0.0" text-anchor="middle" font-family="Nimbus Roman" font-size="30.0pt">CTX 0</text><line x1="50.0" y1="1525.0" x2="125.0" y2="1525.0" stroke="#000" fill="none" stroke-width="6.0"/><polygon points="125.0 1525.0 105.0 1545.0 105.0 1525.0 105.0 1505.0" fill="#000"/><line x1="50.0" y1="1525.0" x2="125.0" y2="1525.0" stroke="#000" fill="none" stroke-width="6.0"/><polygon points="125.0 1525.0 105.0 1545.0 105.0 1525.0 105.0 1505.0" fill="#000"/><path d="M329.0,1600.0A102.0,75.0 0 0 0 227.0,1525.0" stroke="#ffbb78" fill="none" stroke-width="12.0"/><line x1="227.0" y1="1525.0" x2="125.0" y2="1525.0" stroke="#ffbb78" fill="none" stroke-width="12.0"/><line x1="329.0" y1="1600.0" x2="329.0" y2="1675.0" stroke="#ffbb78" fill="none" stroke-width="12.0"/><rect x="125.0" y="1450.0" width="75.0" height="150.0" stroke="#000" fill="#2ca02c"/><text x="162.5" y="1533" fill="#000" stroke-width="0.0" text-anchor="middle" font-family="Nimbus Roman" font-size="30.0pt">+</text><path d="M200.0,1600.0 Q215.0,1587.5 218.75,1600.0" stroke="#2ca02c" fill="none" stroke-width="12.0"/><text x="-12.5" y="1537" fill="#000" stroke-width="0.0" text-anchor="middle" font-family="Nimbus Roman" font-size="30.0pt">CTX 0</text><line x1="50.0" y1="1525.0" x2="125.0" y2="1525.0" stroke="#000" fill="none" stroke-width="6.0"/><polygon points="125.0 1525.0 105.0 1545.0 105.0 1525.0 105.0 1505.0" fill="#000"/><line x1="50.0" y1="1525.0" x2="125.0" y2="1525.0" stroke="#000" fill="none" stroke-width="6.0"/><polygon points="125.0 1525.0 105.0 1545.0 105.0 1525.0 105.0 1505.0" fill="#000"/><path d="M254.0,1562.5A64.5,37.5 0 0 0 189.5,1525.0" stroke="#9467bd" fill="none" stroke-width="12.0"/><line x1="189.5" y1="1525.0" x2="125.0" y2="1525.0" stroke="#9467bd" fill="none" stroke-width="12.0"/><line x1="254.0" y1="1562.5" x2="254.0" y2="1600.0" stroke="#9467bd" fill="none" stroke-width="12.0"/><rect x="275.0" y="1675.0" width="75.0" height="75.0" stroke="#000" fill="none"/><polyline points="282.5,1690.0 297.5,1690.0 327.5,1735.0 342.5,1735.0" stroke="#000" fill="none" stroke-linejoin="round"/><polyline points="282.5,1735.0 297.5,1735.0 327.5,1690.0 342.5,1690.0" stroke="#000" fill="none" stroke-linejoin="round"/><rect x="200.0" y="1600.0" width="75.0" height="75.0" stroke="#000" fill="none"/><polyline points="207.5,1615.0 222.5,1615.0 252.5,1660.0 267.5,1660.0" stroke="#000" fill="none" stroke-linejoin="round"/><polyline points="207.5,1660.0 222.5,1660.0 252.5,1615.0 267.5,1615.0" stroke="#000" fill="none" stroke-linejoin="round"/><rect x="50.0" y="1100.0" width="300.0" height="300.0" stroke="#000" fill="none"/><rect x="125.0" y="1100.0" width="75.0" height="150.0" stroke="#000" fill="#1f77b4"/><text x="162.5" y="1183" fill="#000" stroke-width="0.0" text-anchor="middle" font-family="Nimbus Roman" font-size="30.0pt">*</text><path d="M200.0,1250.0 Q215.0,1237.5 218.75,1250.0" stroke="#1f77b4" fill="none" stroke-width="12.0"/><path d="M254.0,1212.5A64.5,37.5 0 0 0 189.5,1175.0" stroke="#2ca02c" fill="none" stroke-width="12.0"/><line x1="189.5" y1="1175.0" x2="125.0" y2="1175.0" stroke="#2ca02c" fill="none" stroke-width="12.0"/><line x1="254.0" y1="1212.5" x2="254.0" y2="1250.0" stroke="#2ca02c" fill="none" stroke-width="12.0"/><path d="M329.0,1250.0A102.0,75.0 0 0 0 227.0,1175.0" stroke="#d62728" fill="none" stroke-width="12.0"/><line x1="227.0" y1="1175.0" x2="125.0" y2="1175.0" stroke="#d62728" fill="none" stroke-width="12.0"/><line x1="329.0" y1="1250.0" x2="329.0" y2="1325.0" stroke="#d62728" fill="none" stroke-width="12.0"/><rect x="275.0" y="1325.0" width="75.0" height="75.0" stroke="#000" fill="none"/><polyline points="282.5,1340.0 297.5,1340.0 327.5,1385.0 342.5,1385.0" stroke="#000" fill="none" stroke-linejoin="round"/><polyline points="282.5,1385.0 297.5,1385.0 327.5,1340.0 342.5,1340.0" stroke="#000" fill="none" stroke-linejoin="round"/><rect x="200.0" y="1250.0" width="75.0" height="75.0" stroke="#000" fill="none"/><polyline points="207.5,1265.0 222.5,1265.0 252.5,1310.0 267.5,1310.0" stroke="#000" fill="none" stroke-linejoin="round"/><polyline points="207.5,1310.0 222.5,1310.0 252.5,1265.0 267.5,1265.0" stroke="#000" fill="none" stroke-linejoin="round"/><rect x="50.0" y="750.0" width="300.0" height="300.0" stroke="#000" fill="none"/><rect x="125.0" y="750.0" width="75.0" height="150.0" stroke="#000" fill="#98df8a"/><text x="162.5" y="833" fill="#000" stroke-width="0.0" text-anchor="middle" font-family="Nimbus Roman" font-size="30.0pt">c</text><path d="M200.0,900.0 Q215.0,887.5 218.75,900.0" stroke="#98df8a" fill="none" stroke-width="12.0"/><rect x="275.0" y="975.0" width="75.0" height="75.0" stroke="#000" fill="none"/><polyline points="282.5,990.0 297.5,990.0 327.5,1035.0 342.5,1035.0" stroke="#000" fill="none" stroke-linejoin="round"/><polyline points="282.5,1035.0 297.5,1035.0 327.5,990.0 342.5,990.0" stroke="#000" fill="none" stroke-linejoin="round"/><rect x="200.0" y="900.0" width="75.0" height="75.0" stroke="#000" fill="none"/><polyline points="207.5,915.0 222.5,915.0 252.5,960.0 267.5,960.0" stroke="#000" fill="none" stroke-linejoin="round"/><polyline points="207.5,960.0 222.5,960.0 252.5,915.0 267.5,915.0" stroke="#000" fill="none" stroke-linejoin="round"/><rect x="50.0" y="400.0" width="300.0" height="300.0" stroke="#000" fill="none"/><rect x="125.0" y="400.0" width="75.0" height="150.0" stroke="#000" fill="#d62728"/><text x="162.5" y="483" fill="#000" stroke-width="0.0" text-anchor="middle" font-family="Nimbus Roman" font-size="30.0pt">x</text><path d="M200.0,550.0 Q275.0,612.5 293.75,625.0" stroke="#d62728" fill="none" stroke-width="12.0"/><rect x="125.0" y="400.0" width="75.0" height="150.0" stroke="#000" fill="#d62728"/><text x="162.5" y="483" fill="#000" stroke-width="0.0" text-anchor="middle" font-family="Nimbus Roman" font-size="30.0pt">x</text><rect x="275.0" y="625.0" width="75.0" height="75.0" stroke="#000" fill="none"/><polyline points="282.5,640.0 297.5,640.0 327.5,685.0 342.5,685.0" stroke="#000" fill="none" stroke-linejoin="round"/><polyline points="282.5,685.0 297.5,685.0 327.5,640.0 342.5,640.0" stroke="#000" fill="none" stroke-linejoin="round"/><rect x="200.0" y="550.0" width="75.0" height="75.0" stroke="#000" fill="none"/><polyline points="207.5,565.0 222.5,565.0 252.5,610.0 267.5,610.0" stroke="#000" fill="none" stroke-linejoin="round"/><polyline points="207.5,610.0 222.5,610.0 252.5,565.0 267.5,565.0" stroke="#000" fill="none" stroke-linejoin="round"/><rect x="50.0" y="50.0" width="300.0" height="300.0" stroke="#000" fill="none"/><rect x="125.0" y="50.0" width="75.0" height="150.0" stroke="#000" fill="#ffbb78"/><text x="162.5" y="133" fill="#000" stroke-width="0.0" text-anchor="middle" font-family="Nimbus Roman" font-size="30.0pt">*</text><path d="M200.0,200.0 Q275.0,262.5 293.75,275.0" stroke="#ffbb78" fill="none" stroke-width="12.0"/><path d="M254.0,162.5A64.5,37.5 0 0 0 189.5,125.0" stroke="#98df8a" fill="none" stroke-width="12.0"/><line x1="189.5" y1="125.0" x2="125.0" y2="125.0" stroke="#98df8a" fill="none" stroke-width="12.0"/><line x1="254.0" y1="162.5" x2="254.0" y2="200.0" stroke="#98df8a" fill="none" stroke-width="12.0"/><path d="M329.0,200.0A102.0,75.0 0 0 0 227.0,125.0" stroke="#d62728" fill="none" stroke-width="12.0"/><line x1="227.0" y1="125.0" x2="125.0" y2="125.0" stroke="#d62728" fill="none" stroke-width="12.0"/><line x1="329.0" y1="200.0" x2="329.0" y2="275.0" stroke="#d62728" fill="none" stroke-width="12.0"/><rect x="275.0" y="275.0" width="75.0" height="75.0" stroke="#000" fill="none"/><polyline points="282.5,290.0 297.5,290.0 327.5,335.0 342.5,335.0" stroke="#000" fill="none" stroke-linejoin="round"/><polyline points="282.5,335.0 297.5,335.0 327.5,290.0 342.5,290.0" stroke="#000" fill="none" stroke-linejoin="round"/><rect x="200.0" y="200.0" width="75.0" height="75.0" stroke="#000" fill="none"/><polyline points="207.5,215.0 222.5,215.0 252.5,260.0 267.5,260.0" stroke="#000" fill="none" stroke-linejoin="round"/><polyline points="207.5,260.0 222.5,260.0 252.5,215.0 267.5,215.0" stroke="#000" fill="none" stroke-linejoin="round"/><rect x="400.0" y="1450.0" width="300.0" height="300.0" stroke="#000" fill="none"/><rect x="475.0" y="1450.0" width="75.0" height="150.0" stroke="#000" fill="#9467bd"/><text x="512.5" y="1533" fill="#000" stroke-width="0.0" text-anchor="middle" font-family="Nimbus Roman" font-size="30.0pt">5</text><rect x="625.0" y="1675.0" width="75.0" height="75.0" stroke="#000" fill="none"/><polyline points="632.5,1690.0 647.5,1690.0 677.5,1735.0 692.5,1735.0" stroke="#000" fill="none" stroke-linejoin="round"/><polyline points="632.5,1735.0 647.5,1735.0 677.5,1690.0 692.5,1690.0" stroke="#000" fill="none" stroke-linejoin="round"/><rect x="550.0" y="1600.0" width="75.0" height="75.0" stroke="#000" fill="none"/><polyline points="557.5,1615.0 572.5,1615.0 602.5,1660.0 617.5,1660.0" stroke="#000" fill="none" stroke-linejoin="round"/><polyline points="557.5,1660.0 572.5,1660.0 602.5,1615.0 617.5,1615.0" stroke="#000" fill="none" stroke-linejoin="round"/><rect x="400.0" y="1100.0" width="300.0" height="300.0" stroke="#000" fill="none"/><rect x="475.0" y="1100.0" width="75.0" height="150.0" stroke="#000" fill="#ff9896"/><text x="512.5" y="1183" fill="#000" stroke-width="0.0" text-anchor="middle" font-family="Nimbus Roman" font-size="30.0pt">1</text><path d="M550.0,1250.0 Q625.0,1312.5 643.75,1325.0" stroke="#ff9896" fill="none" stroke-width="12.0"/><rect x="625.0" y="1325.0" width="75.0" height="75.0" stroke="#000" fill="none"/><polyline points="632.5,1340.0 647.5,1340.0 677.5,1385.0 692.5,1385.0" stroke="#000" fill="none" stroke-linejoin="round"/><polyline points="632.5,1385.0 647.5,1385.0 677.5,1340.0 692.5,1340.0" stroke="#000" fill="none" stroke-linejoin="round"/><rect x="550.0" y="1250.0" width="75.0" height="75.0" stroke="#000" fill="none"/><polyline points="557.5,1265.0 572.5,1265.0 602.5,1310.0 617.5,1310.0" stroke="#000" fill="none" stroke-linejoin="round"/><polyline points="557.5,1310.0 572.5,1310.0 602.5,1265.0 617.5,1265.0" stroke="#000" fill="none" stroke-linejoin="round"/><rect x="400.0" y="750.0" width="300.0" height="300.0" stroke="#000" fill="none"/><path d="M604.0,862.5A64.5,37.5 0 0 0 539.5,825.0" stroke="#1f77b4" fill="none" stroke-width="12.0"/><line x1="539.5" y1="825.0" x2="475.0" y2="825.0" stroke="#1f77b4" fill="none" stroke-width="12.0"/><line x1="604.0" y1="862.5" x2="604.0" y2="900.0" stroke="#1f77b4" fill="none" stroke-width="12.0"/><rect x="475.0" y="750.0" width="75.0" height="150.0" stroke="#000" fill="#ff7f0e"/><text x="512.5" y="833" fill="#000" stroke-width="0.0" text-anchor="middle" font-family="Nimbus Roman" font-size="30.0pt">+</text><path d="M550.0,900.0 Q625.0,962.5 643.75,975.0" stroke="#ff7f0e" fill="none" stroke-width="12.0"/><path d="M679.0,900.0A102.0,75.0 0 0 0 577.0,825.0" stroke="#ff9896" fill="none" stroke-width="12.0"/><line x1="577.0" y1="825.0" x2="475.0" y2="825.0" stroke="#ff9896" fill="none" stroke-width="12.0"/><line x1="679.0" y1="900.0" x2="679.0" y2="975.0" stroke="#ff9896" fill="none" stroke-width="12.0"/><rect x="625.0" y="975.0" width="75.0" height="75.0" stroke="#000" fill="none"/><polyline points="632.5,990.0 647.5,990.0 677.5,1035.0 692.5,1035.0" stroke="#000" fill="none" stroke-linejoin="round"/><polyline points="632.5,1035.0 647.5,1035.0 677.5,990.0 692.5,990.0" stroke="#000" fill="none" stroke-linejoin="round"/><rect x="550.0" y="900.0" width="75.0" height="75.0" stroke="#000" fill="none"/><polyline points="557.5,915.0 572.5,915.0 602.5,960.0 617.5,960.0" stroke="#000" fill="none" stroke-linejoin="round"/><polyline points="557.5,960.0 572.5,960.0 602.5,915.0 617.5,915.0" stroke="#000" fill="none" stroke-linejoin="round"/><rect x="400.0" y="400.0" width="300.0" height="300.0" stroke="#000" fill="none"/><rect x="475.0" y="400.0" width="75.0" height="150.0" stroke="#000" fill="#aec7e8"/><text x="512.5" y="483" fill="#000" stroke-width="0.0" text-anchor="middle" font-family="Nimbus Roman" font-size="30.0pt">*</text><path d="M550.0,550.0 Q565.0,537.5 568.75,550.0" stroke="#aec7e8" fill="none" stroke-width="12.0"/><path d="M679.0,550.0A102.0,75.0 0 0 0 577.0,475.0" stroke="#ff7f0e" fill="none" stroke-width="12.0"/><line x1="577.0" y1="475.0" x2="475.0" y2="475.0" stroke="#ff7f0e" fill="none" stroke-width="12.0"/><line x1="679.0" y1="550.0" x2="679.0" y2="625.0" stroke="#ff7f0e" fill="none" stroke-width="12.0"/><path d="M604.0,512.5A64.5,37.5 0 0 0 539.5,475.0" stroke="#d62728" fill="none" stroke-width="12.0"/><line x1="539.5" y1="475.0" x2="475.0" y2="475.0" stroke="#d62728" fill="none" stroke-width="12.0"/><line x1="604.0" y1="512.5" x2="604.0" y2="550.0" stroke="#d62728" fill="none" stroke-width="12.0"/><rect x="625.0" y="625.0" width="75.0" height="75.0" stroke="#000" fill="none"/><polyline points="632.5,640.0 647.5,640.0 677.5,685.0 692.5,685.0" stroke="#000" fill="none" stroke-linejoin="round"/><polyline points="632.5,685.0 647.5,685.0 677.5,640.0 692.5,640.0" stroke="#000" fill="none" stroke-linejoin="round"/><rect x="550.0" y="550.0" width="75.0" height="75.0" stroke="#000" fill="none"/><polyline points="557.5,565.0 572.5,565.0 602.5,610.0 617.5,610.0" stroke="#000" fill="none" stroke-linejoin="round"/><polyline points="557.5,610.0 572.5,610.0 602.5,565.0 617.5,565.0" stroke="#000" fill="none" stroke-linejoin="round"/><rect x="400.0" y="50.0" width="300.0" height="300.0" stroke="#000" fill="none"/><path d="M604.0,162.5A64.5,37.5 0 0 0 539.5,125.0" stroke="#aec7e8" fill="none" stroke-width="12.0"/><line x1="539.5" y1="125.0" x2="475.0" y2="125.0" stroke="#aec7e8" fill="none" stroke-width="12.0"/><line x1="604.0" y1="162.5" x2="604.0" y2="200.0" stroke="#aec7e8" fill="none" stroke-width="12.0"/><text x="437.5" y="171" fill="#000" stroke-width="0.0" text-anchor="middle" font-family="Nimbus Roman" font-size="30.0pt">y</text><rect x="625.0" y="275.0" width="75.0" height="75.0" stroke="#000" fill="none"/><polyline points="632.5,290.0 647.5,290.0 677.5,335.0 692.5,335.0" stroke="#000" fill="none" stroke-linejoin="round"/><polyline points="632.5,335.0 647.5,335.0 677.5,290.0 692.5,290.0" stroke="#000" fill="none" stroke-linejoin="round"/><rect x="550.0" y="200.0" width="75.0" height="75.0" stroke="#000" fill="none"/><polyline points="557.5,215.0 572.5,215.0 602.5,260.0 617.5,260.0" stroke="#000" fill="none" stroke-linejoin="round"/><polyline points="557.5,260.0 572.5,260.0 602.5,215.0 617.5,215.0" stroke="#000" fill="none" stroke-linejoin="round"/><line x1="-300.0" y1="1693.75" x2="275.0" y2="1693.75" stroke="#d3d3d3" fill="none" stroke-width="4.0"/><polygon points="275.0 1693.75 255.0 1713.75 255.0 1693.75 255.0 1673.75" fill="#d3d3d3"/><line x1="-75.0" y1="1618.75" x2="200.0" y2="1618.75" stroke="#9467bd" fill="none" stroke-width="12.0"/><polygon points="200.0 1618.75 180.0 1638.75 180.0 1618.75 180.0 1598.75" fill="#9467bd"/><line x1="0.0" y1="1343.75" x2="275.0" y2="1343.75" stroke="#d62728" fill="none" stroke-width="12.0"/><polygon points="275.0 1343.75 255.0 1363.75 255.0 1343.75 255.0 1323.75" fill="#d62728"/><line x1="275.0" y1="1343.75" x2="350.0" y2="1381.25" stroke="#d62728" fill="none" stroke-width="12.0"/><line x1="-375.0" y1="1268.75" x2="200.0" y2="1268.75" stroke="#d3d3d3" fill="none" stroke-width="4.0"/><polygon points="200.0 1268.75 180.0 1288.75 180.0 1268.75 180.0 1248.75" fill="#d3d3d3"/><line x1="-300.0" y1="993.75" x2="275.0" y2="993.75" stroke="#d3d3d3" fill="none" stroke-width="4.0"/><polygon points="275.0 993.75 255.0 1013.75 255.0 993.75 255.0 973.75" fill="#d3d3d3"/><line x1="-375.0" y1="918.75" x2="200.0" y2="918.75" stroke="#d3d3d3" fill="none" stroke-width="4.0"/><polygon points="200.0 918.75 180.0 938.75 180.0 918.75 180.0 898.75" fill="#d3d3d3"/><line x1="-300.0" y1="643.75" x2="275.0" y2="643.75" stroke="#d3d3d3" fill="none" stroke-width="4.0"/><polygon points="275.0 643.75 255.0 663.75 255.0 643.75 255.0 623.75" fill="#d3d3d3"/><line x1="-375.0" y1="568.75" x2="200.0" y2="568.75" stroke="#d3d3d3" fill="none" stroke-width="4.0"/><polygon points="200.0 568.75 180.0 588.75 180.0 568.75 180.0 548.75" fill="#d3d3d3"/><line x1="-300.0" y1="293.75" x2="275.0" y2="293.75" stroke="#d3d3d3" fill="none" stroke-width="4.0"/><polygon points="275.0 293.75 255.0 313.75 255.0 293.75 255.0 273.75" fill="#d3d3d3"/><line x1="-375.0" y1="218.75" x2="200.0" y2="218.75" stroke="#d3d3d3" fill="none" stroke-width="4.0"/><polygon points="200.0 218.75 180.0 238.75 180.0 218.75 180.0 198.75" fill="#d3d3d3"/><line x1="350.0" y1="1693.75" x2="625.0" y2="1693.75" stroke="#d3d3d3" fill="none" stroke-width="4.0"/><polygon points="625.0 1693.75 605.0 1713.75 605.0 1693.75 605.0 1673.75" fill="#d3d3d3"/><line x1="275.0" y1="1618.75" x2="550.0" y2="1618.75" stroke="#d3d3d3" fill="none" stroke-width="4.0"/><polygon points="550.0 1618.75 530.0 1638.75 530.0 1618.75 530.0 1598.75" fill="#d3d3d3"/><line x1="350.0" y1="1343.75" x2="625.0" y2="1343.75" stroke="#d62728" fill="none" stroke-width="12.0"/><polygon points="625.0 1343.75 605.0 1363.75 605.0 1343.75 605.0 1323.75" fill="#d62728"/><line x1="625.0" y1="1343.75" x2="700.0" y2="1381.25" stroke="#d62728" fill="none" stroke-width="12.0"/><line x1="275.0" y1="1268.75" x2="550.0" y2="1268.75" stroke="#d3d3d3" fill="none" stroke-width="4.0"/><polygon points="550.0 1268.75 530.0 1288.75 530.0 1268.75 530.0 1248.75" fill="#d3d3d3"/><line x1="350.0" y1="993.75" x2="625.0" y2="993.75" stroke="#d3d3d3" fill="none" stroke-width="4.0"/><polygon points="625.0 993.75 605.0 1013.75 605.0 993.75 605.0 973.75" fill="#d3d3d3"/><line x1="275.0" y1="918.75" x2="550.0" y2="918.75" stroke="#1f77b4" fill="none" stroke-width="12.0"/><polygon points="550.0 918.75 530.0 938.75 530.0 918.75 530.0 898.75" fill="#1f77b4"/><line x1="350.0" y1="643.75" x2="625.0" y2="643.75" stroke="#d3d3d3" fill="none" stroke-width="4.0"/><polygon points="625.0 643.75 605.0 663.75 605.0 643.75 605.0 623.75" fill="#d3d3d3"/><line x1="275.0" y1="568.75" x2="550.0" y2="568.75" stroke="#d62728" fill="none" stroke-width="12.0"/><polygon points="550.0 568.75 530.0 588.75 530.0 568.75 530.0 548.75" fill="#d62728"/><line x1="350.0" y1="293.75" x2="625.0" y2="293.75" stroke="#d3d3d3" fill="none" stroke-width="4.0"/><polygon points="625.0 293.75 605.0 313.75 605.0 293.75 605.0 273.75" fill="#d3d3d3"/><line x1="275.0" y1="218.75" x2="550.0" y2="218.75" stroke="#d3d3d3" fill="none" stroke-width="4.0"/><polygon points="550.0 218.75 530.0 238.75 530.0 218.75 530.0 198.75" fill="#d3d3d3"/><line x1="700.0" y1="1693.75" x2="975.0" y2="1693.75" stroke="#d3d3d3" fill="none" stroke-width="4.0"/><polygon points="975.0 1693.75 955.0 1713.75 955.0 1693.75 955.0 1673.75" fill="#d3d3d3"/><line x1="625.0" y1="1618.75" x2="900.0" y2="1618.75" stroke="#9467bd" fill="none" stroke-width="12.0"/><polygon points="900.0 1618.75 880.0 1638.75 880.0 1618.75 880.0 1598.75" fill="#9467bd"/><line x1="700.0" y1="1343.75" x2="975.0" y2="1343.75" stroke="#d62728" fill="none" stroke-width="12.0"/><polygon points="975.0 1343.75 955.0 1363.75 955.0 1343.75 955.0 1323.75" fill="#d62728"/><line x1="975.0" y1="1343.75" x2="1050.0" y2="1381.25" stroke="#d62728" fill="none" stroke-width="12.0"/><line x1="625.0" y1="1268.75" x2="900.0" y2="1268.75" stroke="#d3d3d3" fill="none" stroke-width="4.0"/><polygon points="900.0 1268.75 880.0 1288.75 880.0 1268.75 880.0 1248.75" fill="#d3d3d3"/><line x1="700.0" y1="993.75" x2="975.0" y2="993.75" stroke="#d3d3d3" fill="none" stroke-width="4.0"/><polygon points="975.0 993.75 955.0 1013.75 955.0 993.75 955.0 973.75" fill="#d3d3d3"/><line x1="625.0" y1="918.75" x2="900.0" y2="918.75" stroke="#d3d3d3" fill="none" stroke-width="4.0"/><polygon points="900.0 918.75 880.0 938.75 880.0 918.75 880.0 898.75" fill="#d3d3d3"/><line x1="700.0" y1="643.75" x2="975.0" y2="643.75" stroke="#d3d3d3" fill="none" stroke-width="4.0"/><polygon points="975.0 643.75 955.0 663.75 955.0 643.75 955.0 623.75" fill="#d3d3d3"/><line x1="625.0" y1="568.75" x2="900.0" y2="568.75" stroke="#d3d3d3" fill="none" stroke-width="4.0"/><polygon points="900.0 568.75 880.0 588.75 880.0 568.75 880.0 548.75" fill="#d3d3d3"/><line x1="700.0" y1="293.75" x2="975.0" y2="293.75" stroke="#d3d3d3" fill="none" stroke-width="4.0"/><polygon points="975.0 293.75 955.0 313.75 955.0 293.75 955.0 273.75" fill="#d3d3d3"/><line x1="625.0" y1="218.75" x2="900.0" y2="218.75" stroke="#d3d3d3" fill="none" stroke-width="4.0"/><polygon points="900.0 218.75 880.0 238.75 880.0 218.75 880.0 198.75" fill="#d3d3d3"/><line x1="293.75" y1="1767.5" x2="293.75" y2="1750.0" stroke="#ffbb78" fill="none" stroke-width="12.0"/><polygon points="293.75 1750.0 313.75 1770.0 293.75 1770.0 273.75 1770.0" fill="#ffbb78"/><line x1="218.75" y1="1950.0" x2="218.75" y2="1675.0" stroke="#d3d3d3" fill="none" stroke-width="4.0"/><polygon points="218.75 1675.0 238.75 1695.0 218.75 1695.0 198.75 1695.0" fill="#d3d3d3"/><line x1="293.75" y1="1675.0" x2="293.75" y2="1400.0" stroke="#d3d3d3" fill="none" stroke-width="4.0"/><polygon points="293.75 1400.0 313.75 1420.0 293.75 1420.0 273.75 1420.0" fill="#d3d3d3"/><line x1="218.75" y1="1600.0" x2="218.75" y2="1325.0" stroke="#2ca02c" fill="none" stroke-width="12.0"/><polygon points="218.75 1325.0 238.75 1345.0 218.75 1345.0 198.75 1345.0" fill="#2ca02c"/><line x1="293.75" y1="1325.0" x2="293.75" y2="1050.0" stroke="#d3d3d3" fill="none" stroke-width="4.0"/><polygon points="293.75 1050.0 313.75 1070.0 293.75 1070.0 273.75 1070.0" fill="#d3d3d3"/><line x1="218.75" y1="1250.0" x2="218.75" y2="975.0" stroke="#1f77b4" fill="none" stroke-width="12.0"/><polygon points="218.75 975.0 238.75 995.0 218.75 995.0 198.75 995.0" fill="#1f77b4"/><line x1="293.75" y1="975.0" x2="293.75" y2="700.0" stroke="#d3d3d3" fill="none" stroke-width="4.0"/><polygon points="293.75 700.0 313.75 720.0 293.75 720.0 273.75 720.0" fill="#d3d3d3"/><line x1="218.75" y1="900.0" x2="218.75" y2="625.0" stroke="#98df8a" fill="none" stroke-width="12.0"/><polygon points="218.75 625.0 238.75 645.0 218.75 645.0 198.75 645.0" fill="#98df8a"/><line x1="293.75" y1="625.0" x2="293.75" y2="350.0" stroke="#d62728" fill="none" stroke-width="12.0"/><polygon points="293.75 350.0 313.75 370.0 293.75 370.0 273.75 370.0" fill="#d62728"/><line x1="218.75" y1="550.0" x2="218.75" y2="275.0" stroke="#98df8a" fill="none" stroke-width="12.0"/><polygon points="218.75 275.0 238.75 295.0 218.75 295.0 198.75 295.0" fill="#98df8a"/><line x1="293.75" y1="275.0" x2="293.75" y2="17.5" stroke="#ffbb78" fill="none" stroke-width="12.0"/><path d="M368.75,17.5A37.5,17.5 0 0 0 293.75,17.499999999999996" stroke="#ffbb78" fill="none" stroke-width="12.0"/><line x1="368.75" y1="17.5" x2="368.75" y2="1767.5" stroke="#ffbb78" fill="none" stroke-width="12.0"/><path d="M368.75,1767.5A37.5,17.5 0 0 1 293.75,1767.5" stroke="#ffbb78" fill="none" stroke-width="12.0"/><line x1="218.75" y1="200.0" x2="218.75" y2="-75.0" stroke="#d3d3d3" fill="none" stroke-width="4.0"/><polygon points="218.75 -75.0 238.75 -55.0 218.75 -55.0 198.75 -55.0" fill="#d3d3d3"/><line x1="643.75" y1="2025.0" x2="643.75" y2="1750.0" stroke="#d3d3d3" fill="none" stroke-width="4.0"/><polygon points="643.75 1750.0 663.75 1770.0 643.75 1770.0 623.75 1770.0" fill="#d3d3d3"/><line x1="568.75" y1="1950.0" x2="568.75" y2="1675.0" stroke="#d3d3d3" fill="none" stroke-width="4.0"/><polygon points="568.75 1675.0 588.75 1695.0 568.75 1695.0 548.75 1695.0" fill="#d3d3d3"/><line x1="643.75" y1="1675.0" x2="643.75" y2="1400.0" stroke="#d3d3d3" fill="none" stroke-width="4.0"/><polygon points="643.75 1400.0 663.75 1420.0 643.75 1420.0 623.75 1420.0" fill="#d3d3d3"/><line x1="568.75" y1="1600.0" x2="568.75" y2="1325.0" stroke="#d3d3d3" fill="none" stroke-width="4.0"/><polygon points="568.75 1325.0 588.75 1345.0 568.75 1345.0 548.75 1345.0" fill="#d3d3d3"/><line x1="643.75" y1="1325.0" x2="643.75" y2="1050.0" stroke="#ff9896" fill="none" stroke-width="12.0"/><polygon points="643.75 1050.0 663.75 1070.0 643.75 1070.0 623.75 1070.0" fill="#ff9896"/><line x1="568.75" y1="1250.0" x2="568.75" y2="975.0" stroke="#d3d3d3" fill="none" stroke-width="4.0"/><polygon points="568.75 975.0 588.75 995.0 568.75 995.0 548.75 995.0" fill="#d3d3d3"/><line x1="643.75" y1="975.0" x2="643.75" y2="700.0" stroke="#ff7f0e" fill="none" stroke-width="12.0"/><polygon points="643.75 700.0 663.75 720.0 643.75 720.0 623.75 720.0" fill="#ff7f0e"/><line x1="568.75" y1="900.0" x2="568.75" y2="625.0" stroke="#d3d3d3" fill="none" stroke-width="4.0"/><polygon points="568.75 625.0 588.75 645.0 568.75 645.0 548.75 645.0" fill="#d3d3d3"/><line x1="643.75" y1="625.0" x2="643.75" y2="350.0" stroke="#d3d3d3" fill="none" stroke-width="4.0"/><polygon points="643.75 350.0 663.75 370.0 643.75 370.0 623.75 370.0" fill="#d3d3d3"/><line x1="568.75" y1="550.0" x2="568.75" y2="275.0" stroke="#aec7e8" fill="none" stroke-width="12.0"/><polygon points="568.75 275.0 588.75 295.0 568.75 295.0 548.75 295.0" fill="#aec7e8"/><line x1="643.75" y1="275.0" x2="643.75" y2="0.0" stroke="#d3d3d3" fill="none" stroke-width="4.0"/><polygon points="643.75 0.0 663.75 20.0 643.75 20.0 623.75 20.0" fill="#d3d3d3"/><line x1="568.75" y1="200.0" x2="568.75" y2="-75.0" stroke="#d3d3d3" fill="none" stroke-width="4.0"/><polygon points="568.75 -75.0 588.75 -55.0 568.75 -55.0 548.75 -55.0" fill="#d3d3d3"/><text x="85.0" y="1743" fill="#000" stroke-width="0.0" text-anchor="middle" font-family="Nimbus Roman" font-size="20.0pt">(0,0) </text><text x="85.0" y="1393" fill="#000" stroke-width="0.0" text-anchor="middle" font-family="Nimbus Roman" font-size="20.0pt">(0,1) </text><text x="85.0" y="1043" fill="#000" stroke-width="0.0" text-anchor="middle" font-family="Nimbus Roman" font-size="20.0pt">(0,2) </text><text x="85.0" y="693" fill="#000" stroke-width="0.0" text-anchor="middle" font-family="Nimbus Roman" font-size="20.0pt">(0,3) </text><text x="85.0" y="343" fill="#000" stroke-width="0.0" text-anchor="middle" font-family="Nimbus Roman" font-size="20.0pt">(0,4) </text><text x="435.0" y="1743" fill="#000" stroke-width="0.0" text-anchor="middle" font-family="Nimbus Roman" font-size="20.0pt">(1,0) </text><text x="435.0" y="1393" fill="#000" stroke-width="0.0" text-anchor="middle" font-family="Nimbus Roman" font-size="20.0pt">(1,1) </text><text x="435.0" y="1043" fill="#000" stroke-width="0.0" text-anchor="middle" font-family="Nimbus Roman" font-size="20.0pt">(1,2) </text><text x="435.0" y="693" fill="#000" stroke-width="0.0" text-anchor="middle" font-family="Nimbus Roman" font-size="20.0pt">(1,3) </text><text x="435.0" y="343" fill="#000" stroke-width="0.0" text-anchor="middle" font-family="Nimbus Roman" font-size="20.0pt">(1,4) </text><text x="250.0" y="1438" fill="#000" stroke-width="0.0" text-anchor="middle" font-family="Nimbus Roman" font-size="30.0pt">CTX 0</text><text x="505.0" y="1438" fill="#000" stroke-width="0.0" text-anchor="middle" font-family="Nimbus Roman" font-size="30.0pt">CTX 1</text><line x1="312.0" y1="1427.0" x2="369.0" y2="1427.0" stroke="#000" fill="none" stroke-width="6.0"/><polygon points="369.0 1427.0 349.0 1447.0 349.0 1427.0 349.0 1407.0" fill="#000"/><line x1="445.0" y1="1427.0" x2="388.0" y2="1427.0" stroke="#000" fill="none" stroke-width="6.0"/><polygon points="388.0 1427.0 408.0 1407.0 408.0 1427.0 408.0 1447.0" fill="#000"/></svg>